name Visual3d_SIMM_grf.mot
datacolumns 19
datarows 44
range 0.170000 0.600000
endheader
time	ground_force_vx	ground_force_vy	ground_force_vz	ground_force_px	ground_force_py	ground_force_pz	l_ground_force_vx	l_ground_force_vy	l_ground_force_vz	l_ground_force_px	l_ground_force_py	l_ground_force_pz	ground_torque_x	ground_torque_y	ground_torque_z	l_ground_torque_x	l_ground_torque_y	l_ground_torque_z
0.170000	0.000000	0.000000	0.000000	0.000000	0.000000	0.000000	-36.012196	218.250229	1.483948	-0.442042	-0.005429	0.219021	0.000000	0.000000	0.000000	-0.001816	1.468753	-0.003048
0.180000	0.000000	0.000000	0.000000	0.000000	0.000000	0.000000	-43.092724	253.939499	4.905148	-0.439723	-0.005339	0.218470	0.000000	0.000000	0.000000	-0.002072	1.675189	-0.003477
0.190000	0.000000	0.000000	0.000000	0.000000	0.000000	0.000000	-48.241444	280.139954	8.840181	-0.436641	-0.005081	0.217559	0.000000	0.000000	0.000000	-0.002289	1.851226	-0.003842
0.200000	0.000000	0.000000	0.000000	0.000000	0.000000	0.000000	-51.026318	296.495636	12.902535	-0.433169	-0.004710	0.216359	0.000000	0.000000	0.000000	-0.002474	2.000490	-0.004152
0.210000	0.000000	0.000000	0.000000	0.000000	0.000000	0.000000	-51.527744	304.397949	16.822872	-0.429609	-0.004271	0.214947	0.000000	0.000000	0.000000	-0.002617	2.116036	-0.004392
0.220000	0.000000	0.000000	0.000000	0.000000	0.000000	0.000000	-50.078419	306.018616	20.217686	-0.426200	-0.003801	0.213465	0.000000	0.000000	0.000000	-0.002717	2.196772	-0.004559
0.230000	0.000000	0.000000	0.000000	0.000000	0.000000	0.000000	-47.117363	303.550598	22.699390	-0.423062	-0.003330	0.212081	0.000000	0.000000	0.000000	-0.002777	2.245022	-0.004660
0.240000	0.000000	0.000000	0.000000	0.000000	0.000000	0.000000	-43.175938	298.841217	24.093958	-0.420143	-0.002886	0.210916	0.000000	0.000000	0.000000	-0.002798	2.262112	-0.004695
0.250000	0.000000	0.000000	0.000000	0.000000	0.000000	0.000000	-38.796741	293.137451	24.449142	-0.417245	-0.002498	0.210003	0.000000	0.000000	0.000000	-0.002788	2.254642	-0.004680
0.260000	0.000000	0.000000	0.000000	0.000000	0.000000	0.000000	-34.431713	287.067780	23.952913	-0.414101	-0.002184	0.209293	0.000000	0.000000	0.000000	-0.002762	2.233129	-0.004635
0.270000	0.000000	0.000000	0.000000	0.000000	0.000000	0.000000	-30.385767	280.745819	22.871334	-0.410478	-0.001951	0.208679	0.000000	0.000000	0.000000	-0.002729	2.206882	-0.004580
0.280000	0.000000	0.000000	0.000000	0.000000	0.000000	0.000000	-26.830469	273.936615	21.499422	-0.406204	-0.001797	0.208036	0.000000	0.000000	0.000000	-0.002701	2.183557	-0.004532
0.290000	0.000000	0.000000	0.000000	0.000000	0.000000	0.000000	-23.850512	266.382538	20.113464	-0.401168	-0.001706	0.207249	0.000000	0.000000	0.000000	-0.002681	2.167674	-0.004499
0.300000	0.000000	0.000000	0.000000	0.000000	0.000000	0.000000	-21.460594	258.116425	18.908894	-0.395320	-0.001656	0.206247	0.000000	0.000000	0.000000	-0.002672	2.160665	-0.004484
0.310000	0.000000	0.000000	0.000000	0.000000	0.000000	0.000000	-19.597013	249.571930	17.962185	-0.388713	-0.001626	0.205035	0.000000	0.000000	0.000000	-0.002673	2.161189	-0.004486
0.320000	0.000000	0.000000	0.000000	0.000000	0.000000	0.000000	-18.124346	241.454987	17.243837	-0.381534	-0.001600	0.203681	0.000000	0.000000	0.000000	-0.002679	2.165844	-0.004495
0.330000	0.000000	0.000000	0.000000	0.000000	0.000000	0.000000	-16.875982	234.495865	16.665720	-0.374094	-0.001569	0.202294	0.000000	0.000000	0.000000	-0.002684	2.169966	-0.004504
0.340000	0.000000	0.000000	0.000000	0.000000	0.000000	0.000000	-15.694706	229.235870	16.135250	-0.366783	-0.001529	0.200984	0.000000	0.000000	0.000000	-0.002681	2.167812	-0.004499
0.350000	0.000000	0.000000	0.000000	0.000000	0.000000	0.000000	-14.454170	225.916138	15.586516	-0.359981	-0.001480	0.199845	0.000000	0.000000	0.000000	-0.002665	2.154786	-0.004472
0.360000	0.000000	0.000000	0.000000	0.000000	0.000000	0.000000	-13.069371	224.491959	14.995594	-0.353980	-0.001423	0.198938	0.000000	0.000000	0.000000	-0.002635	2.130222	-0.004421
0.370000	0.000000	0.000000	0.000000	0.000000	0.000000	0.000000	-11.495008	224.727142	14.379812	-0.348940	-0.001362	0.198291	0.000000	0.000000	0.000000	-0.002595	2.097981	-0.004354
0.380000	0.000000	0.000000	0.000000	0.000000	0.000000	0.000000	-9.712955	226.299164	13.777355	-0.344889	-0.001295	0.197905	0.000000	0.000000	0.000000	-0.002554	2.064815	-0.004286
0.390000	0.000000	0.000000	0.000000	0.000000	0.000000	0.000000	-7.720510	228.882248	13.217842	-0.341756	-0.001225	0.197752	0.000000	0.000000	0.000000	-0.002519	2.036698	-0.004227
0.400000	0.000000	0.000000	0.000000	0.000000	0.000000	0.000000	-5.525239	232.205124	12.704150	-0.339409	-0.001152	0.197782	0.000000	0.000000	0.000000	-0.002492	2.015202	-0.004183
0.410000	0.000000	0.000000	0.000000	0.000000	0.000000	0.000000	-3.137819	236.074646	12.207825	-0.337693	-0.001085	0.197942	0.000000	0.000000	0.000000	-0.002469	1.996439	-0.004144
0.420000	0.000000	0.000000	0.000000	0.000000	0.000000	0.000000	-0.562289	240.368683	11.692415	-0.336450	-0.001029	0.198178	0.000000	0.000000	0.000000	-0.002442	1.974537	-0.004098
0.430000	0.000000	0.000000	0.000000	0.000000	0.000000	0.000000	2.196355	245.014191	11.149994	-0.335531	-0.000988	0.198451	0.000000	0.000000	0.000000	-0.002408	1.946913	-0.004041
0.440000	0.000000	0.000000	0.000000	0.000000	0.000000	0.000000	5.117177	249.971466	10.600960	-0.334798	-0.000961	0.198733	0.000000	0.000000	0.000000	-0.002369	1.915485	-0.003976
0.450000	0.000000	0.000000	0.000000	0.000000	0.000000	0.000000	8.172736	255.202713	10.079483	-0.334134	-0.000947	0.199005	0.000000	0.000000	0.000000	-0.002332	1.885227	-0.003913
0.460000	0.000000	0.000000	0.000000	0.000000	0.000000	0.000000	11.347846	260.647308	9.622766	-0.333453	-0.000947	0.199261	0.000000	0.000000	0.000000	-0.002304	1.862870	-0.003866
0.470000	0.000000	0.000000	0.000000	0.000000	0.000000	0.000000	14.645991	266.212524	9.262971	-0.332710	-0.000966	0.199495	0.000000	0.000000	0.000000	-0.002295	1.855741	-0.003852
0.480000	0.000000	0.000000	0.000000	0.000000	0.000000	0.000000	18.088671	271.783264	9.023475	-0.331877	-0.001011	0.199706	0.000000	0.000000	0.000000	-0.002313	1.870269	-0.003882
0.490000	0.000000	0.000000	0.000000	0.000000	0.000000	0.000000	21.708261	277.230682	8.922452	-0.330942	-0.001080	0.199903	0.000000	0.000000	0.000000	-0.002363	1.910589	-0.003965
0.500000	0.000000	0.000000	0.000000	0.000000	0.000000	0.000000	25.534571	282.410278	8.979800	-0.329906	-0.001169	0.200107	0.000000	0.000000	0.000000	-0.002448	1.979143	-0.004108
0.510000	0.000000	0.000000	0.000000	0.000000	0.000000	0.000000	29.581577	287.129272	9.213982	-0.328784	-0.001265	0.200351	0.000000	0.000000	0.000000	-0.002569	2.076871	-0.004311
0.520000	0.000000	0.000000	0.000000	0.000000	0.000000	0.000000	33.825859	291.085693	9.626767	-0.327599	-0.001352	0.200677	0.000000	0.000000	0.000000	-0.002723	2.201871	-0.004570
0.530000	0.000000	0.000000	0.000000	0.000000	0.000000	0.000000	38.176613	293.795197	10.178869	-0.326376	-0.001415	0.201116	0.000000	0.000000	0.000000	-0.002903	2.347159	-0.004872
0.540000	0.000000	0.000000	0.000000	0.000000	0.000000	0.000000	42.463215	294.540009	10.769532	-0.325142	-0.001444	0.201687	0.000000	0.000000	0.000000	-0.003091	2.499545	-0.005188
0.550000	0.000000	0.000000	0.000000	0.000000	0.000000	0.000000	46.434940	292.404205	11.240829	-0.323931	-0.001436	0.202383	0.000000	0.000000	0.000000	-0.003266	2.640597	-0.005481
0.560000	-0.914205	27.569326	5.710732	0.078414	-0.003684	0.259204	49.775497	286.375885	11.406814	-0.322798	-0.001398	0.203190	-0.000454	-0.109028	0.002031	-0.003400	2.748778	-0.005705
0.570000	-2.624063	49.667831	8.079481	0.087308	-0.003850	0.260835	52.126492	275.506622	11.098087	-0.321847	-0.001342	0.204093	-0.000339	-0.081530	0.001519	-0.003466	2.802730	-0.005817
0.580000	-5.146645	77.350250	10.188272	0.095178	-0.003925	0.261470	53.114056	259.092041	10.209967	-0.321254	-0.001286	0.205089	-0.000106	-0.025388	0.000473	-0.003445	2.785474	-0.005781
0.590000	-8.667298	107.916878	11.285131	0.104338	-0.003665	0.261697	52.391857	236.869797	8.742833	-0.321289	-0.001246	0.206208	0.000295	0.070938	-0.001322	-0.003325	2.688547	-0.005580
0.600000	-13.797692	138.566666	10.763822	0.116275	-0.002862	0.261819	49.707355	209.211807	6.819256	-0.322329	-0.001233	0.207501	0.000890	0.214051	-0.003988	-0.003108	2.513439	-0.005217
